PathFileType	4	(X/Y/Z)	C:/Users/beibeiliu/ov580/test_trc/User3\sequence.21_training_dense_right.trc
DataRate	CameraRate	NumFrames	NumMarkers	Units	OrigDataRate	OrigDataStartFrame	OrigNumFrames
120	120	18	19	mm	120	166	265
Frame#	Time	ThumbCMC			ThumbMCP			ThumbIP			ThumbTip			IndexMCP			IndexPIP			IndexTip			MiddleMCP			MiddlePIP			MiddleTip			RingMCP			RingPIP			RingTip			PinkyMCP			PinkyPIP			PinkyTip			BackHand1			BackHand2			BackHand3	
		X0	Y0	Z0	X1	Y1	Z1	X2	Y2	Z2	X3	Y3	Z3	X4	Y4	Z4	X5	Y5	Z5	X6	Y6	Z6	X7	Y7	Z7	X8	Y8	Z8	X9	Y9	Z9	X10	Y10	Z10	X11	Y11	Z11	X12	Y12	Z12	X13	Y13	Z13	X14	Y14	Z14	X15	Y15	Z15	X16	Y16	Z16	X17	Y17	Z17	X18	Y18	Z18	
165	1.375	181.586	-14.9014	-24.0123	190.793	-16.6439	-54.633	199.821	-22.9957	-81.7436	208.237	-26.7511	-103.499	219.456	-51.5099	-80.4333	200.913	-43.9394	-103.415	179.708	-27.4256	-82.9212	203.264	-64.1522	-80.3229	174.122	-49.5772	-91.5506	166.151	-45.7798	-50.2534	185.822	-73.8259	-73.9382	157.591	-58.641	-75.0282	159.136	-46.0014	-43.812	173.361	-86.6733	-68.2486	155.103	-67.7518	-68.2604	152.694	-55.5747	-43.3904	198.101	-80.398	-19.2595	182.044	-71.0162	8.29816	202.676	-40.9917	-6.56507	
166	1.38333	178.241	-3.30288	-23.4545	181.274	-4.59624	-52.3894	189.907	-4.44798	-84.104	193.457	-6.36999	-102.037	215.725	-34.1226	-83.8318	190.829	-27.2658	-105.192	171.3	-19.1161	-82.852	195.925	-46.0899	-85.2777	164.447	-36.3927	-85.9314	163.975	-33.5308	-48.5029	186.039	-59.613	-77.9343	157.282	-50.368	-75.9948	157.652	-43.5452	-43.993	174.801	-78.314	-64.8996	158.67	-53.9543	-66.881	165.805	-43.7097	-39.377	202.855	-62.4359	-21.9346	184.967	-61.7366	8.16716	204.047	-27.0391	-8.10825	
167	1.39167	160.309	5.54843	-17.5103	164.818	14.6192	-49.4377	174.242	11.5026	-80.0892	180.593	-3.58895	-97.3405	201.927	4.10392	-79.5309	178.491	-2.21226	-104.567	159.627	-9.29117	-78.8311	191.32	-19.7584	-88.0271	161.287	-23.7448	-91.8113	156.899	-24.455	-50.6464	192.633	-41.0156	-78.3431	158.631	-44.8725	-79.3555	158.561	-38.9906	-46.3778	181.917	-55.5395	-71.5939	158.133	-50.1136	-60.8919	167.552	-45.0237	-32.2665	207.48	-39.7813	-24.3264	192.859	-46.4114	6.49772	191.624	-11.199	-8.3337	
168	1.4	154.651	15.7945	-20.7889	161.063	21.6851	-49.3937	169.835	27.2524	-78.2841	176.285	20.338	-97.5758	192.826	10.5706	-84.1721	167.114	3.32905	-100.549	148.973	-5.05524	-70.2318	192.87	-13.1277	-86.1252	161.147	-17.0739	-92.0033	148.343	-13.8015	-56.4798	186.469	-31.6466	-77.1708	156.467	-35.341	-74.6176	155.587	-24.9152	-40.4736	183.083	-47.3136	-69.9294	157.047	-38.5726	-62.9962	161.721	-32.2467	-35.7554	204.147	-30.1799	-23.7279	188.421	-30.9675	4.09441	188.582	-0.731869	-11.3767	
169	1.40833	138.022	15.7283	-15.9165	138.687	32.733	-40.5082	154.759	36.2134	-68.8966	161.998	41.6516	-91.1561	176.221	32.7951	-79.8954	154.806	13.394	-95.7397	144.772	1.51261	-67.2886	182.897	9.38307	-77.3229	154.21	-11.5892	-83.4854	155.423	-14.8009	-44.0478	188.464	-13.6051	-71.9126	158.536	-25.9903	-71.5679	153.826	-19.4565	-41.816	191.168	-25.5367	-66.7584	163.497	-30.637	-64.1458	164.862	-25.7588	-35.3139	198.347	-4.62671	-17.4605	181.338	-17.4142	8.02705	172.622	14.1675	-5.18825	
170	1.41667	133.36	16.7746	-8.84618	129.247	36.6263	-36.375	135.258	46.8136	-62.856	150.153	42.078	-83.7099	165.334	40.9077	-69.5784	147.852	19.8708	-90.1809	136.661	8.71572	-59.6867	173.672	20.5622	-72.4656	147.256	-0.907323	-81.1888	147.476	-9.01893	-41.2122	182.702	-0.634797	-69.3423	154.83	-16.3069	-71.7075	151.036	-17.5594	-39.4009	187.798	-15.5508	-62.7809	158.415	-22.9468	-58.7955	158.931	-15.3811	-31.0735	192.077	5.27862	-15.3535	181.891	-9.97775	13.5475	166.984	18.8806	0.185628	
171	1.425	125.575	11.3794	-0.372384	120.597	32.0846	-27.6268	124.493	42.7492	-50.7564	131.009	52.2627	-75.5838	150.596	51.7466	-55.7009	137.463	36.2199	-83.593	132.748	8.98451	-66.8792	165.525	30.0133	-66.4122	140.452	4.60402	-76.2267	146.022	-7.98191	-40.2108	175.332	9.89957	-65.6509	151.182	-11.5603	-68.2272	149.346	-14.1972	-35.2303	182.045	-7.32789	-64.695	159.56	-18.4083	-66.9072	139.853	-18.0275	-45.1885	189.043	8.02787	-7.80651	178.131	-9.53478	14.811	156.186	20.983	10.76	
172	1.43333	118.75	9.1209	2.48674	111.533	28.3251	-21.3624	113.504	45.033	-50.1151	118.607	51.7065	-68.5446	141.335	53.9051	-55.3191	126.214	37.8831	-79.1649	126.13	11.4244	-58.1508	156.037	32.9979	-66.0658	139.921	7.32643	-74.6914	141.703	-4.5834	-34.2896	169.051	19.8651	-61.9435	149.593	-4.4213	-69.5884	146.077	-10.5023	-35.0346	179.705	2.71277	-57.8516	158.212	-15.2031	-59.5847	155.563	-19.5628	-27.5961	183.936	14.8271	-6.50938	178.868	-6.17268	19.3363	148.976	23.7048	9.93742	
173	1.44167	113.965	4.70358	3.06261	104.123	22.412	-23.0357	110.261	35.6947	-49.1536	104.885	44.395	-68.1937	126.36	55.4253	-54.4586	116.228	37.6592	-77.0398	116.911	10.3815	-56.4585	147.702	37.3374	-63.7926	133.752	12.4202	-75.6007	135.437	-4.83476	-37.5789	161.569	24.5345	-60.328	147.448	-3.71338	-67.6168	142.439	-10.1681	-34.5126	173.574	8.07384	-56.2418	153.231	-10.397	-56.4812	152.414	-11.5772	-23.3414	173.357	22.9821	-2.35622	173.634	1.71767	17.1165	143.061	20.9284	14.0945	
174	1.45	106.294	1.65044	3.2431	96.7867	20.4687	-24.423	100.088	32.5864	-48.9861	107.001	39.1759	-67.1467	122.036	52.8098	-54.2092	115.084	36.7254	-78.5355	119.798	7.20853	-59.4743	143.817	33.8174	-61.7666	132.811	3.32812	-70.8756	135.696	-8.2238	-36.2118	159.936	20.8627	-58.0805	148.934	-9.27174	-61.12	142.352	-11.1666	-28.3718	171.351	8.23777	-52.0636	156.661	-13.2023	-50.6734	157.006	-14.9459	-18.3269	168.165	23.2976	-0.718427	168.719	3.12116	19.9726	133.151	22.016	11.2577	
175	1.45833	107.047	-5.18566	6.8005	90.864	12.15	-20.1378	95.973	27.2195	-50.0129	96.4109	32.8884	-68.7554	114.625	46.2594	-53.7578	107.157	25.2005	-80.2668	113.655	1.21739	-58.998	136.932	29.9029	-65.1784	125.77	2.24188	-73.6079	125.631	-10.4059	-37.1626	154.447	19.9904	-59.8879	143.556	-8.6613	-65.7275	139.67	-15.1717	-33.316	164.35	9.70129	-56.539	150.13	-13.1746	-52.9525	148.95	-9.66874	-22.4402	165.468	27.245	-4.29866	165.485	4.97	21.0213	132.866	23.3404	11.8224	
176	1.46667	102.837	-8.54113	1.30385	84.1167	6.3717	-21.3544	90.3074	22.327	-48.6421	95.8943	30.5586	-69.8388	108.577	41.5006	-56.558	109.933	21.6436	-82.5311	119.651	-1.5506	-64.6386	136.241	26.4421	-59.4431	134.061	-7.62118	-69.4331	133.074	-15.3606	-32.1465	152.167	16.9169	-58.1431	144.666	-12.9169	-60.3079	139.603	-18.0322	-28.6383	168.927	6.38132	-50.6313	152.369	-15.1226	-47.609	148.706	-11.2645	-15.9794	157.799	24.9176	0.300478	155.206	5.19385	22.2393	121.734	14.4836	11.0368	
177	1.475	98.3973	-18.251	1.88405	85.0728	-1.35696	-23.6815	92.1567	12.2029	-49.7725	94.6818	21.1815	-70.7375	101.538	35.2106	-58.8277	104.426	14.2531	-84.5005	119.463	-5.516	-67.3123	130.074	20.0167	-65.0539	133.725	-8.85817	-71.5584	135.715	-15.803	-30.7256	147.585	14.6482	-58.3866	148.22	-15.654	-60.4718	139.821	-19.3508	-26.2441	165.002	7.43199	-52.8282	152.293	-16.9447	-49.1699	152.534	-15.714	-18.0498	151.137	24.8964	-1.73994	154.642	0.590078	22.538	117.235	9.38537	12.5585	
178	1.48333	97.03	-19.1815	3.58268	80.3951	-6.08272	-24.7252	94.7567	4.58564	-52.2552	98.8812	9.06325	-72.7959	98.9696	27.2366	-59.4993	102.634	5.71731	-86.7962	119.508	-13.3442	-62.8274	131.315	15.8739	-65.5787	129.084	-18.0083	-71.4293	132.46	-20.8242	-30.7492	149.414	8.2558	-60.9633	146.788	-19.886	-61.3382	141.914	-22.6777	-26.3927	161.326	2.83012	-53.0276	154.73	-20.6223	-49.1733	153.516	-17.0428	-16.3327	150.549	23.8294	-4.0952	149.565	3.13118	23.3957	118.573	10.2324	10.5819	
179	1.49167	100.504	-18.6236	1.39421	84.8657	-7.42092	-26.3337	93.1151	-0.931591	-58.8567	102.231	-0.398363	-79.1626	108.712	17.1444	-69.5619	110.616	-8.43857	-90.9699	120.357	-26.4268	-65.0928	135.88	-0.369347	-69.2491	134.983	-32.5887	-68.7761	131.619	-26.8045	-26.011	151.219	-6.39368	-61.1535	145.712	-36.1269	-55.5326	140.184	-30.533	-23.8677	167.076	-10.6915	-52.6328	156.221	-34.2008	-46.4224	152.174	-26.9794	-15.4092	154.334	16.2745	-9.50056	151.7	1.89792	21.1312	121.592	9.22641	4.43457	
180	1.5	102.682	-14.9302	-1.53816	88.1139	-11.6581	-28.6683	97.4407	-11.7617	-62.5705	97.2832	-14.0024	-81.9222	112.043	4.58818	-75.0836	113.079	-23.1229	-91.7031	122.903	-38.3613	-64.3045	140.365	-15.4108	-72.2096	132.982	-46.7818	-64.9746	130.884	-36.4634	-28.6767	157.101	-18.5722	-62.8511	145.006	-48.9672	-54.3352	138.787	-38.265	-25.2593	166.429	-27.6863	-54.6502	152.249	-44.4925	-42.5454	149.696	-27.3363	-13.7716	161.306	12.2204	-15.7405	159.446	5.90932	12.5636	123.158	9.57302	-3.99491	
181	1.50833	104.033	-23.2176	1.59209	91.4026	-20.9868	-30.8903	99.547	-22.6689	-58.6414	105.376	-23.2226	-82.2088	113.63	-7.09228	-75.5429	120.183	-37.2772	-88.9199	125.639	-48.3046	-61.0461	140.549	-22.5654	-71.7144	136.611	-55.2461	-61.763	130.073	-41.993	-25.6132	157.587	-30.1936	-62.2671	151.999	-55.3779	-50.6106	145.003	-44.7841	-19.1416	174.213	-33.8165	-49.2023	158.389	-52.1119	-35.6631	150.359	-32.2436	-13.6884	156.371	7.74563	-16.0282	154.602	2.45906	14.4323	126.682	2.24446	-0.939494	
182	1.51667	100.578	-25.7195	-1.68433	91.1786	-29.1542	-35.4251	98.0789	-36.0032	-61.4799	117.274	-44.7729	-77.7389	112.86	-20.5457	-75.9895	114.31	-53.5026	-87.8689	124.382	-59.0494	-55.9084	140.508	-35.5944	-70.6306	136.539	-67.2442	-55.2214	136.97	-48.0864	-21.9546	155.379	-43.1692	-61.9145	151.451	-65.8075	-41.1321	144.634	-44.5554	-15.5122	172.135	-40.5752	-49.7749	161.375	-64.8112	-33.2522	154.331	-53.7087	-7.52996	160.086	-0.118439	-22.1273	157.15	-0.0844469	6.52799	122.972	-0.431789	-9.39303	
